name Walk6.mot
datacolumns 19
datarows 30
range 2.56200000 2.59100000
endheader

                time	   L_ground_force_vx	   L_ground_force_vy	   L_ground_force_vz	   L_ground_force_px	   L_ground_force_py	   L_ground_force_pz	   R_ground_force_vx	   R_ground_force_vy	   R_ground_force_vz	   R_ground_force_px	   R_ground_force_py	   R_ground_force_pz	   L_ground_torque_x	   L_ground_torque_y	   L_ground_torque_z	   R_ground_torque_x	   R_ground_torque_y	   R_ground_torque_z	
          2.56200000	         22.61834581	         89.39205965	          4.07677477	          0.25055923	          0.00000000	          0.11438897	          0.00000000	          0.00000000	          0.00000000	          0.00000000	          0.00000000	          0.00000000	          0.00000000	         -6.83155784	          0.00000000	          0.00000000	          0.00000000	          0.00000000	
          2.56300000	         21.02807124	         82.97580150	          3.79817713	          0.25251776	          0.00000000	          0.11469986	          0.00000000	          0.00000000	          0.00000000	          0.00000000	          0.00000000	          0.00000000	          0.00000000	         -6.53447000	          0.00000000	          0.00000000	          0.00000000	          0.00000000	
          2.56400000	         19.45876419	         76.74768745	          3.51370929	          0.25442018	          0.00000000	          0.11498101	          0.00000000	          0.00000000	          0.00000000	          0.00000000	          0.00000000	          0.00000000	          0.00000000	         -6.24562286	          0.00000000	          0.00000000	          0.00000000	          0.00000000	
          2.56500000	         17.90382208	         70.78064002	          3.23056747	          0.25618621	          0.00000000	          0.11545024	          0.00000000	          0.00000000	          0.00000000	          0.00000000	          0.00000000	          0.00000000	          0.00000000	         -5.95885830	          0.00000000	          0.00000000	          0.00000000	          0.00000000	
          2.56600000	         16.35750569	         65.12914324	          2.95268947	          0.25762166	          0.00000000	          0.11617296	          0.00000000	          0.00000000	          0.00000000	          0.00000000	          0.00000000	          0.00000000	          0.00000000	         -5.66457235	          0.00000000	          0.00000000	          0.00000000	          0.00000000	
          2.56700000	         14.81088156	         59.81710266	          2.67732586	          0.25850729	          0.00000000	          0.11696766	          0.00000000	          0.00000000	          0.00000000	          0.00000000	          0.00000000	          0.00000000	          0.00000000	         -5.35132820	          0.00000000	          0.00000000	          0.00000000	          0.00000000	
          2.56800000	         13.25200931	         54.84856760	          2.40087052	          0.25901094	          0.00000000	          0.11750310	          0.00000000	          0.00000000	          0.00000000	          0.00000000	          0.00000000	          0.00000000	          0.00000000	         -5.01213847	          0.00000000	          0.00000000	          0.00000000	          0.00000000	
          2.56900000	         11.67558941	         50.21872481	          2.12203803	          0.25973207	          0.00000000	          0.11746198	          0.00000000	          0.00000000	          0.00000000	          0.00000000	          0.00000000	          0.00000000	          0.00000000	         -4.64913761	          0.00000000	          0.00000000	          0.00000000	          0.00000000	
          2.57000000	         10.08961497	         45.95136737	          1.83863023	          0.26122546	          0.00000000	          0.11689912	          0.00000000	          0.00000000	          0.00000000	          0.00000000	          0.00000000	          0.00000000	          0.00000000	         -4.27546472	          0.00000000	          0.00000000	          0.00000000	          0.00000000	
          2.57100000	          8.51206287	         42.11245255	          1.55028722	          0.26353404	          0.00000000	          0.11639972	          0.00000000	          0.00000000	          0.00000000	          0.00000000	          0.00000000	          0.00000000	          0.00000000	         -3.90994527	          0.00000000	          0.00000000	          0.00000000	          0.00000000	
          2.57200000	          6.96519019	         38.75775515	          1.26142601	          0.26619879	          0.00000000	          0.11654790	          0.00000000	          0.00000000	          0.00000000	          0.00000000	          0.00000000	          0.00000000	          0.00000000	         -3.56570916	          0.00000000	          0.00000000	          0.00000000	          0.00000000	
          2.57300000	          5.47116720	         35.88951830	          0.97228805	          0.26866207	          0.00000000	          0.11741223	          0.00000000	          0.00000000	          0.00000000	          0.00000000	          0.00000000	          0.00000000	          0.00000000	         -3.24577603	          0.00000000	          0.00000000	          0.00000000	          0.00000000	
          2.57400000	          4.05099119	         33.47360458	          0.67044636	          0.27067490	          0.00000000	          0.11867442	          0.00000000	          0.00000000	          0.00000000	          0.00000000	          0.00000000	          0.00000000	          0.00000000	         -2.94816625	          0.00000000	          0.00000000	          0.00000000	          0.00000000	
          2.57500000	          2.73017964	         31.46730840	          0.34130350	          0.27261751	          0.00000000	          0.11990733	          0.00000000	          0.00000000	          0.00000000	          0.00000000	          0.00000000	          0.00000000	          0.00000000	         -2.67179458	          0.00000000	          0.00000000	          0.00000000	          0.00000000	
          2.57600000	          1.54109595	         29.79778026	         -0.01623638	          0.27537320	          0.00000000	          0.12078498	          0.00000000	          0.00000000	          0.00000000	          0.00000000	          0.00000000	          0.00000000	          0.00000000	         -2.41764363	          0.00000000	          0.00000000	          0.00000000	          0.00000000	
          2.57700000	          0.51126050	         28.30311176	         -0.38646766	          0.27941975	          0.00000000	          0.12135354	          0.00000000	          0.00000000	          0.00000000	          0.00000000	          0.00000000	          0.00000000	          0.00000000	         -2.18378013	          0.00000000	          0.00000000	          0.00000000	          0.00000000	
          2.57800000	         -0.34554849	         26.70902731	         -0.73371331	          0.28439941	          0.00000000	          0.12204787	          0.00000000	          0.00000000	          0.00000000	          0.00000000	          0.00000000	          0.00000000	          0.00000000	         -1.96044072	          0.00000000	          0.00000000	          0.00000000	          0.00000000	
          2.57900000	         -1.01524964	         24.66743543	         -0.99730648	          0.28976650	          0.00000000	          0.12319493	          0.00000000	          0.00000000	          0.00000000	          0.00000000	          0.00000000	          0.00000000	          0.00000000	         -1.73219058	          0.00000000	          0.00000000	          0.00000000	          0.00000000	
          2.58000000	         -1.45927822	         21.82599457	         -1.11248274	          0.29504310	          0.00000000	          0.12446736	          0.00000000	          0.00000000	          0.00000000	          0.00000000	          0.00000000	          0.00000000	          0.00000000	         -1.48102687	          0.00000000	          0.00000000	          0.00000000	          0.00000000	
          2.58100000	         -1.61733704	         17.95257679	         -1.05278569	          0.29963047	          0.00000000	          0.12511535	          0.00000000	          0.00000000	          0.00000000	          0.00000000	          0.00000000	          0.00000000	          0.00000000	         -1.19005424	          0.00000000	          0.00000000	          0.00000000	          0.00000000	
          2.58200000	         -1.46603304	         13.18758104	         -0.84865081	          0.30321926	          0.00000000	          0.12478423	          0.00000000	          0.00000000	          0.00000000	          0.00000000	          0.00000000	          0.00000000	          0.00000000	         -0.86082557	          0.00000000	          0.00000000	          0.00000000	          0.00000000	
          2.58300000	         -1.08925382	          8.23700467	         -0.57336835	          0.30626887	          0.00000000	          0.12370051	          0.00000000	          0.00000000	          0.00000000	          0.00000000	          0.00000000	          0.00000000	          0.00000000	         -0.53129949	          0.00000000	          0.00000000	          0.00000000	          0.00000000	
          2.58400000	          0.00000000	          0.00000000	          0.00000000	          0.00000000	          0.00000000	          0.00000000	          0.00000000	          0.00000000	          0.00000000	          0.00000000	          0.00000000	          0.00000000	          0.00000000	          0.00000000	          0.00000000	          0.00000000	          0.00000000	          0.00000000	
          2.58500000	          0.00000000	          0.00000000	          0.00000000	          0.00000000	          0.00000000	          0.00000000	          0.00000000	          0.00000000	          0.00000000	          0.00000000	          0.00000000	          0.00000000	          0.00000000	          0.00000000	          0.00000000	          0.00000000	          0.00000000	          0.00000000	
          2.58600000	          0.00000000	          0.00000000	          0.00000000	          0.00000000	          0.00000000	          0.00000000	          0.00000000	          0.00000000	          0.00000000	          0.00000000	          0.00000000	          0.00000000	          0.00000000	          0.00000000	          0.00000000	          0.00000000	          0.00000000	          0.00000000	
          2.58700000	          0.00000000	          0.00000000	          0.00000000	          0.00000000	          0.00000000	          0.00000000	          0.00000000	          0.00000000	          0.00000000	          0.00000000	          0.00000000	          0.00000000	          0.00000000	          0.00000000	          0.00000000	          0.00000000	          0.00000000	          0.00000000	
          2.58800000	          0.00000000	          0.00000000	          0.00000000	          0.00000000	          0.00000000	          0.00000000	          0.00000000	          0.00000000	          0.00000000	          0.00000000	          0.00000000	          0.00000000	          0.00000000	          0.00000000	          0.00000000	          0.00000000	          0.00000000	          0.00000000	
          2.58900000	          0.00000000	          0.00000000	          0.00000000	          0.00000000	          0.00000000	          0.00000000	          0.00000000	          0.00000000	          0.00000000	          0.00000000	          0.00000000	          0.00000000	          0.00000000	          0.00000000	          0.00000000	          0.00000000	          0.00000000	          0.00000000	
          2.59000000	          0.00000000	          0.00000000	          0.00000000	          0.00000000	          0.00000000	          0.00000000	          0.00000000	          0.00000000	          0.00000000	          0.00000000	          0.00000000	          0.00000000	          0.00000000	          0.00000000	          0.00000000	          0.00000000	          0.00000000	          0.00000000	
          2.59100000	          0.00000000	          0.00000000	          0.00000000	          0.00000000	          0.00000000	          0.00000000	          0.00000000	          0.00000000	          0.00000000	          0.00000000	          0.00000000	          0.00000000	          0.00000000	          0.00000000	          0.00000000	          0.00000000	          0.00000000	          0.00000000	
